HIERARCHY
ROOT Pelvis
{
	OFFSET 0.000000 0.000000 0.000000
	CHANNELS 6 Xposition Yposition Zposition Xrotation Yrotation Zrotation
	JOINT LeftUpLeg_virtual
	{
		OFFSET 0.000000 0.000000 0.000000
		CHANNELS 3 Xrotation Yrotation Zrotation
		JOINT LeftUpLeg
		{
			OFFSET 8.479700 -4.795502 -0.379100
			CHANNELS 3 Xrotation Yrotation Zrotation
			JOINT LeftLeg
			{
				OFFSET 0.024144 -32.555107 0.112900
				CHANNELS 3 Xrotation Yrotation Zrotation
				JOINT LeftFoot
				{
					OFFSET -0.024144 -32.638630 -3.012600
					CHANNELS 3 Xrotation Yrotation Zrotation
					JOINT LeftToeBase
					{
						OFFSET 0.970200 -13.225400 11.864200
						CHANNELS 3 Xrotation Yrotation Zrotation
						End Site
						{
							OFFSET 0 0 0
						}
					}
				}
			}
		}
	}
	JOINT RightUpLeg_virtual
	{
		OFFSET 0.000000 0.000000 0.000000
		CHANNELS 3 Xrotation Yrotation Zrotation
		JOINT RightUpLeg
		{
			OFFSET -8.479700 -4.795502 -0.379100
			CHANNELS 3 Xrotation Yrotation Zrotation
			JOINT RightLeg
			{
				OFFSET -0.023144 -32.555092 0.112900
				CHANNELS 3 Xrotation Yrotation Zrotation
				JOINT RightFoot
				{
					OFFSET 0.023144 -32.638641 -3.012700
					CHANNELS 3 Xrotation Yrotation Zrotation
					JOINT RightToeBase
					{
						OFFSET -0.970200 -13.225400 11.864200
						CHANNELS 3 Xrotation Yrotation Zrotation
						End Site
						{
							OFFSET 0 0 0
						}
					}
				}
			}
		}
	}
	JOINT Hips_virtual
	{
		OFFSET 0.000000 0.000000 0.000000
		CHANNELS 3 Xrotation Yrotation Zrotation
		JOINT Hips
		{
			OFFSET -0.000000 -0.000000 -0.000000
			CHANNELS 3 Xrotation Yrotation Zrotation
			JOINT Spine
			{
				OFFSET 0.000000 7.722000 1.166200
				CHANNELS 3 Xrotation Yrotation Zrotation
				JOINT Spine1
				{
					OFFSET 0.000000 12.024101 0.248800
					CHANNELS 3 Xrotation Yrotation Zrotation
					JOINT Spine2
					{
						OFFSET 0.000000 11.502998 -0.491200
						CHANNELS 3 Xrotation Yrotation Zrotation
						JOINT Neck_virtual
						{
							OFFSET 0.000000 0.000000 0.000000
							CHANNELS 3 Xrotation Yrotation Zrotation
							JOINT Neck
							{
								OFFSET 0.000000 18.430702 -3.123100
								CHANNELS 3 Xrotation Yrotation Zrotation
								JOINT Head
								{
									OFFSET 0.000000 9.051102 1.034000
									CHANNELS 3 Xrotation Yrotation Zrotation
									End Site
									{
										OFFSET 0 0 0
									}
								}
							}
						}
						JOINT LeftShoulder_virtual
						{
							OFFSET 0.000000 0.000000 0.000000
							CHANNELS 3 Xrotation Yrotation Zrotation
							JOINT LeftShoulder
							{
								OFFSET 6.197800 13.665199 -4.064700
								CHANNELS 3 Xrotation Yrotation Zrotation
								JOINT LeftArm
								{
									OFFSET 7.778100 -0.187103 -1.709300
									CHANNELS 3 Xrotation Yrotation Zrotation
									JOINT LeftForeArm
									{
										OFFSET 22.049376 0.000000 0.000000
										CHANNELS 3 Xrotation Yrotation Zrotation
										JOINT LeftHand
										{
											OFFSET 23.009392 0.000000 0.000000
											CHANNELS 3 Xrotation Yrotation Zrotation
											End Site
											{
												OFFSET 0 0 0
											}
										}
									}
								}
							}
						}
						JOINT RightShoulder_virtual
						{
							OFFSET 0.000000 0.000000 0.000000
							CHANNELS 3 Xrotation Yrotation Zrotation
							JOINT RightShoulder
							{
								OFFSET -6.197800 13.665199 -4.064700
								CHANNELS 3 Xrotation Yrotation Zrotation
								JOINT RightArm
								{
									OFFSET -7.778100 -0.187103 -1.709300
									CHANNELS 3 Xrotation Yrotation Zrotation
									JOINT RightForeArm
									{
										OFFSET -22.049376 0.000000 0.000000
										CHANNELS 3 Xrotation Yrotation Zrotation
										JOINT RightHand
										{
											OFFSET -23.009392 0.000000 0.000000
											CHANNELS 3 Xrotation Yrotation Zrotation
											End Site
											{
												OFFSET 0 0 0
											}
										}
									}
								}
							}
						}
					}
				}
			}
		}
	}
}
MOTION
Frames: 9
Frame Time: 0.03333333
-0.509375 81.033432 -3.653574 0.000000 0.000000 0.000000 1.019611 3.205130 -0.506177 -14.324421 9.246579 6.189806 24.066848 -1.756697 1.911707 -11.040395 0.819519 -5.006801 0.000000 0.000000 0.000000 1.019611 3.205130 -0.506177 -10.616683 -6.211717 -5.884627 23.601336 -9.099058 7.834762 -12.973616 -16.372117 -0.308224 0.000000 0.000000 0.000000 1.019611 3.205130 -0.506177 0.000000 0.000000 0.000000 19.038652 -0.910011 -1.234989 1.223057 -0.119062 0.413204 0.000000 0.000000 0.000000 1.222979 -0.102590 0.414475 17.491925 0.957045 1.398484 0.000000 0.000000 0.000000 1.222979 -0.102590 0.414475 11.672664 -37.520606 -0.316569 11.271318 19.967069 -51.862945 -0.000007 -34.690818 -0.000013 0.000000 0.000000 0.000000 1.222979 -0.102590 0.414475 0.491475 -2.548973 6.180814 3.745286 20.212628 34.029471 -0.000011 9.536092 -0.000002 0.000000 0.000000 0.000000 
-0.495815 81.048073 -3.582184 0.000000 0.000000 0.000000 0.970261 3.175530 -0.506221 -14.147554 9.297868 6.198690 23.954991 -1.774899 1.886557 -11.058682 0.818824 -4.995001 0.000000 0.000000 0.000000 0.970261 3.175530 -0.506221 -10.438605 -6.188945 -5.849641 23.463761 -9.116281 7.785089 -12.952812 -16.382026 -0.267431 0.000000 0.000000 0.000000 0.970261 3.175530 -0.506221 0.000000 0.000000 0.000000 18.772271 -0.900475 -1.235738 1.229634 -0.117465 0.406142 0.000000 0.000000 0.000000 1.229541 -0.101461 0.407324 17.464860 0.625444 1.445074 0.000000 0.000000 0.000000 1.229541 -0.101461 0.407324 11.432074 -37.413413 -0.403148 11.910125 20.221615 -52.024547 -0.000008 -34.586985 -0.000008 0.000000 0.000000 0.000000 1.229541 -0.101461 0.407324 0.477897 -2.717888 6.166505 4.034787 19.963359 34.183256 -0.000002 9.601052 -0.000010 0.000000 0.000000 0.000000 
-0.484840 81.058258 -3.519604 0.000000 0.000000 0.000000 0.923113 3.158765 -0.494436 -13.989996 9.335030 6.190178 23.862997 -1.786414 1.869242 -11.076785 0.818581 -4.987416 0.000000 0.000000 0.000000 0.923113 3.158765 -0.494436 -10.291650 -6.183800 -5.842207 23.370841 -9.123257 7.751590 -12.950429 -16.381276 -0.233413 0.000000 0.000000 0.000000 0.923113 3.158765 -0.494436 0.000000 0.000000 0.000000 18.532182 -0.875327 -1.259136 1.234583 -0.113720 0.407004 0.000000 0.000000 0.000000 1.234492 -0.097861 0.408095 17.433489 0.332751 1.495481 0.000000 0.000000 0.000000 1.234492 -0.097861 0.408095 11.198578 -37.286033 -0.490909 12.400878 20.323685 -52.234445 -0.000007 -34.431496 0.000001 0.000000 0.000000 0.000000 1.234492 -0.097861 0.408095 0.469255 -2.842996 6.172177 4.088859 19.748917 34.584796 0.000004 9.610798 -0.000011 0.000000 0.000000 0.000000 
-0.476084 81.063805 -3.465443 0.000000 0.000000 0.000000 0.877001 3.162338 -0.471255 -13.852526 9.356451 6.163225 23.792884 -1.797137 1.862011 -11.095090 0.818811 -4.983560 0.000000 0.000000 0.000000 0.877001 3.162338 -0.471255 -10.174211 -6.194262 -5.860134 23.324116 -9.119915 7.732029 -12.968256 -16.379183 -0.204817 0.000000 0.000000 0.000000 0.877001 3.162338 -0.471255 0.000000 0.000000 0.000000 18.318470 -0.838344 -1.300943 1.237618 -0.108356 0.414652 0.000000 0.000000 0.000000 1.237492 -0.092383 0.415662 17.402058 0.082499 1.541182 0.000000 0.000000 0.000000 1.237492 -0.092383 0.415662 10.974284 -37.134181 -0.580668 12.738217 20.288158 -52.482484 -0.000014 -34.226775 -0.000002 0.000000 0.000000 0.000000 1.237492 -0.092383 0.415662 0.465135 -2.927775 6.199371 3.910890 19.563082 35.227469 -0.000000 9.562525 -0.000015 0.000000 0.000000 0.000000 
-0.469079 81.065140 -3.419268 0.000000 0.000000 0.000000 0.828679 3.192589 -0.440197 -13.734200 9.362616 6.121232 23.746519 -1.815235 1.866350 -11.114308 0.819483 -4.982395 0.000000 0.000000 0.000000 0.828679 3.192589 -0.440197 -10.078297 -6.215997 -5.895824 23.317586 -9.108558 7.722769 -13.004515 -16.386472 -0.180332 0.000000 0.000000 0.000000 0.828679 3.192589 -0.440197 0.000000 0.000000 0.000000 18.133766 -0.792135 -1.353095 1.238729 -0.101847 0.428709 0.000000 0.000000 0.000000 1.238573 -0.085527 0.429644 17.373493 -0.124218 1.574507 0.000000 0.000000 0.000000 1.238573 -0.085527 0.429644 10.762254 -36.958447 -0.671951 12.927844 20.131023 -52.757911 0.000001 -33.986403 0.000004 0.000000 0.000000 0.000000 1.238573 -0.085527 0.429644 0.465288 -2.973858 6.249358 3.518501 19.404431 36.092659 0.000002 9.454693 -0.000001 0.000000 0.000000 0.000000 
-0.463460 81.062996 -3.380745 0.000000 0.000000 0.000000 0.773555 3.253146 -0.406402 -13.632090 9.356108 6.070688 23.724303 -1.849062 1.882344 -11.134723 0.820478 -4.982484 0.000000 0.000000 0.000000 0.773555 3.253146 -0.406402 -9.991774 -6.243870 -5.938796 23.339535 -9.093056 7.719614 -13.054388 -16.412581 -0.159037 0.000000 0.000000 0.000000 0.773555 3.253146 -0.406402 0.000000 0.000000 0.000000 17.982215 -0.738586 -1.405064 1.238184 -0.094588 0.448609 0.000000 0.000000 0.000000 1.237968 -0.077740 0.449470 17.348629 -0.289013 1.591245 0.000000 0.000000 0.000000 1.237968 -0.077740 0.449470 10.567757 -36.765720 -0.762367 12.983233 19.868935 -53.051845 -0.000002 -33.730404 -0.000021 0.000000 0.000000 0.000000 1.237968 -0.077740 0.449470 0.469761 -2.980016 6.322708 2.938482 19.275262 37.153996 -0.000006 9.287213 0.000006 0.000000 0.000000 0.000000 
-0.459104 81.058311 -3.349691 0.000000 0.000000 0.000000 0.707639 3.344211 -0.374244 -13.543031 9.340304 6.018315 23.726107 -1.904253 1.908787 -11.156662 0.821670 -4.982533 0.000000 0.000000 0.000000 0.707639 3.344211 -0.374244 -9.903893 -6.273632 -5.980292 23.378774 -9.077321 7.719696 -13.112865 -16.462764 -0.140556 0.000000 0.000000 0.000000 0.707639 3.344211 -0.374244 0.000000 0.000000 0.000000 17.867141 -0.679120 -1.446990 1.236353 -0.086863 0.473127 0.000000 0.000000 0.000000 1.236040 -0.069373 0.473913 17.326819 -0.415921 1.592087 0.000000 0.000000 0.000000 1.236040 -0.069373 0.473913 10.397782 -36.567494 -0.848130 12.922673 19.518239 -53.359630 -0.000007 -33.484374 -0.000001 0.000000 0.000000 0.000000 1.236040 -0.069373 0.473913 0.478996 -2.941787 6.419240 2.199130 19.178251 38.382702 -0.000002 9.062158 -0.000015 0.000000 0.000000 0.000000 
-0.456256 81.052055 -3.325924 0.000000 0.000000 0.000000 0.629606 3.462421 -0.345222 -13.462443 9.318509 5.967736 23.745798 -1.981618 1.943199 -11.177710 0.822840 -4.981741 0.000000 0.000000 0.000000 0.629606 3.462421 -0.345222 -9.809367 -6.303490 -6.016100 23.427687 -9.064165 7.721550 -13.176161 -16.536399 -0.125174 0.000000 0.000000 0.000000 0.629606 3.462421 -0.345222 0.000000 0.000000 0.000000 17.787346 -0.614190 -1.473322 1.233737 -0.078739 0.500674 0.000000 0.000000 0.000000 1.233302 -0.060561 0.501386 17.306719 -0.510732 1.582333 0.000000 0.000000 0.000000 1.233302 -0.060561 0.501386 10.258281 -36.375791 -0.925630 12.766398 19.092947 -53.681841 0.000002 -33.277727 0.000011 0.000000 0.000000 0.000000 1.233302 -0.060561 0.501386 0.494023 -2.852075 6.538373 1.324952 19.112587 39.751786 0.000002 8.784883 -0.000015 0.000000 0.000000 0.000000 
-0.455416 81.045158 -3.309015 0.000000 0.000000 0.000000 0.541956 3.601239 -0.317570 -13.386906 9.293228 5.918913 23.774591 -2.076858 1.982327 -11.194493 0.823787 -4.980023 0.000000 0.000000 0.000000 0.541956 3.601239 -0.317570 -9.709014 -6.333597 -6.046955 23.481268 -9.054963 7.724538 -13.241281 -16.627959 -0.113268 0.000000 0.000000 0.000000 0.541956 3.601239 -0.317570 0.000000 0.000000 0.000000 17.735679 -0.542341 -1.484737 1.230920 -0.069935 0.529957 0.000000 0.000000 0.000000 1.230350 -0.051077 0.530587 17.287279 -0.580043 1.570039 0.000000 0.000000 0.000000 1.230350 -0.051077 0.530587 10.150759 -36.197981 -0.993320 12.532735 18.601607 -54.023064 0.000000 -33.136939 0.000000 0.000000 0.000000 0.000000 1.230350 -0.051077 0.530587 0.516407 -2.702350 6.679548 0.336645 19.071765 41.236963 0.000007 8.465360 0.000013 0.000000 0.000000 0.000000 
